<?xml version="1.0" standalone="no"?>
<!DOCTYPE svg PUBLIC "-//W3C//DTD SVG 1.1//EN" "http://www.w3.org/Graphics/SVG/1.1/DTD/svg11.dtd">
<svg width="100%" height="100%" viewBox="0 0 750 300" version="1.1" xmlns="http://www.w3.org/2000/svg" xmlns:xlink="http://www.w3.org/1999/xlink" xml:space="preserve" style="fill-rule:evenodd;clip-rule:evenodd;stroke-linecap:round;stroke-linejoin:round;stroke-miterlimit:1.41421;">
    <circle cx="75" cy="75" r="12.874" style="fill:rgb(38,123,217);"/>
    <g transform="matrix(1,0,0,1,0,150)">
        <circle cx="75" cy="75" r="12.874" style="fill:rgb(38,123,217);"/>
    </g>
    <g transform="matrix(1,0,0,1,0,75)">
        <circle cx="75" cy="75" r="12.874" style="fill:rgb(242,13,13);"/>
    </g>
    <g transform="matrix(1,0,0,1,75,0)">
        <circle cx="75" cy="75" r="12.874" style="fill:rgb(38,123,217);"/>
    </g>
    <g transform="matrix(1,0,0,1,75,150)">
        <circle cx="75" cy="75" r="12.874" style="fill:rgb(242,13,13);"/>
    </g>
    <g transform="matrix(1,0,0,1,75,75)">
        <circle cx="75" cy="75" r="12.874" style="fill:rgb(242,13,13);"/>
    </g>
    <g transform="matrix(1,0,0,1,150,0)">
        <circle cx="75" cy="75" r="12.874" style="fill:rgb(242,13,13);"/>
    </g>
    <g transform="matrix(1,0,0,1,150,150)">
        <circle cx="75" cy="75" r="12.874" style="fill:rgb(38,123,217);"/>
    </g>
    <g transform="matrix(1,0,0,1,150,75)">
        <circle cx="75" cy="75" r="12.874" style="fill:rgb(242,13,13);"/>
    </g>
    <g transform="matrix(1,0,0,1,225,0)">
        <circle cx="75" cy="75" r="12.874" style="fill:rgb(38,123,217);"/>
    </g>
    <g transform="matrix(1,0,0,1,225,150)">
        <circle cx="75" cy="75" r="12.874" style="fill:rgb(38,123,217);"/>
    </g>
    <g transform="matrix(1,0,0,1,225,75)">
        <circle cx="75" cy="75" r="12.874" style="fill:rgb(242,13,13);"/>
    </g>
    <g transform="matrix(1,0,0,1,300,0)">
        <circle cx="75" cy="75" r="12.874" style="fill:rgb(242,13,13);"/>
    </g>
    <g transform="matrix(1,0,0,1,300,150)">
        <circle cx="75" cy="75" r="12.874" style="fill:rgb(38,123,217);"/>
    </g>
    <g transform="matrix(1,0,0,1,300,75)">
        <circle cx="75" cy="75" r="12.874" style="fill:rgb(242,13,13);"/>
    </g>
    <g transform="matrix(1,0,0,1,375,0)">
        <circle cx="75" cy="75" r="12.874" style="fill:rgb(38,123,217);"/>
    </g>
    <g transform="matrix(1,0,0,1,375,150)">
        <circle cx="75" cy="75" r="12.874" style="fill:rgb(242,13,13);"/>
    </g>
    <g transform="matrix(1,0,0,1,375,75)">
        <circle cx="75" cy="75" r="12.874" style="fill:rgb(38,123,217);"/>
    </g>
    <g transform="matrix(1,0,0,1,450,0)">
        <circle cx="75" cy="75" r="12.874" style="fill:rgb(242,13,13);"/>
    </g>
    <g transform="matrix(1,0,0,1,450,150)">
        <circle cx="75" cy="75" r="12.874" style="fill:rgb(38,123,217);"/>
    </g>
    <g transform="matrix(1,0,0,1,450,75)">
        <circle cx="75" cy="75" r="12.874" style="fill:rgb(242,13,13);"/>
    </g>
    <g transform="matrix(1,0,0,1,525,0)">
        <circle cx="75" cy="75" r="12.874" style="fill:rgb(38,123,217);"/>
    </g>
    <g transform="matrix(1,0,0,1,525,150)">
        <circle cx="75" cy="75" r="12.874" style="fill:rgb(242,13,13);"/>
    </g>
    <g transform="matrix(1,0,0,1,525,75)">
        <circle cx="75" cy="75" r="12.874" style="fill:rgb(242,13,13);"/>
    </g>
    <g transform="matrix(1,0,0,1,600,0)">
        <circle cx="75" cy="75" r="12.874" style="fill:rgb(242,13,13);"/>
    </g>
    <g transform="matrix(1,0,0,1,600,150)">
        <circle cx="75" cy="75" r="12.874" style="fill:rgb(38,123,217);"/>
    </g>
    <g transform="matrix(1,0,0,1,600,75)">
        <circle cx="75" cy="75" r="12.874" style="fill:rgb(242,13,13);"/>
    </g>
    <rect x="75" y="75" width="225" height="150" style="fill:none;stroke-width:4.17px;stroke:black;"/>
    <rect x="525" y="75" width="150" height="75" style="fill:none;stroke-width:4.17px;stroke:black;"/>
</svg>
