<?xml version="1.0" standalone="no"?>
<!DOCTYPE svg PUBLIC "-//W3C//DTD SVG 1.1//EN" "http://www.w3.org/Graphics/SVG/1.1/DTD/svg11.dtd">
<svg width="100%" height="100%" viewBox="0 0 140 140" version="1.1" xmlns="http://www.w3.org/2000/svg" xmlns:xlink="http://www.w3.org/1999/xlink" xml:space="preserve" style="fill-rule:evenodd;clip-rule:evenodd;stroke-linecap:round;stroke-linejoin:round;stroke-miterlimit:1.41421;">
    <g transform="matrix(1,0,0,1,-250,-2.30926e-14)">
        <g transform="matrix(1,0,0,1,-330,-280)">
            <path d="M600,400L600,300" style="fill:none;stroke-width:4.17px;stroke:black;"/>
        </g>
        <g transform="matrix(1,0,0,1,-330,-280)">
            <path d="M600,400L650,350" style="fill:none;stroke-width:4.17px;stroke:black;"/>
        </g>
        <g transform="matrix(1,0,0,1.1104,-330,-318.64)">
            <path d="M650,350L700,304.971L650,350Z" style="fill:none;stroke-width:3.94px;stroke:black;"/>
        </g>
        <g transform="matrix(1,0,0,1,-330,-280)">
            <path d="M650,350L700,400" style="fill:none;stroke-width:4.17px;stroke:black;"/>
        </g>
        <g transform="matrix(1,0,0,1,-330,-280)">
            <path d="M700,300L700,400" style="fill:none;stroke-width:4.17px;stroke:black;"/>
        </g>
        <g transform="matrix(1,0,0,1,-330,-280)">
            <path d="M650,350L600,300" style="fill:none;stroke-width:4.17px;stroke:black;"/>
        </g>
    </g>
    <g transform="matrix(1,0,0,1,-280,-280)">
        <g transform="matrix(1,2.22045e-16,-2.22045e-16,1,300,300)">
            <circle cx="0" cy="0" r="10" style="fill:black;stroke-width:4.17px;stroke:white;"/>
        </g>
        <g transform="matrix(1,2.22045e-16,-2.22045e-16,1,300,400)">
            <circle cx="0" cy="0" r="10" style="fill:black;stroke-width:4.17px;stroke:white;"/>
        </g>
        <g transform="matrix(1,2.22045e-16,-2.22045e-16,1,400,300)">
            <circle cx="0" cy="0" r="10" style="fill:black;stroke-width:4.17px;stroke:white;"/>
        </g>
        <g transform="matrix(1,2.22045e-16,-2.22045e-16,1,400,400)">
            <circle cx="0" cy="0" r="10" style="fill:black;stroke-width:4.17px;stroke:white;"/>
        </g>
        <g transform="matrix(1,2.22045e-16,-2.22045e-16,1,350,350)">
            <circle cx="0" cy="0" r="10" style="fill:black;stroke-width:4.17px;stroke:white;"/>
        </g>
    </g>
</svg>
