<?xml version="1.0" standalone="no"?>
<!DOCTYPE svg PUBLIC "-//W3C//DTD SVG 1.1//EN" "http://www.w3.org/Graphics/SVG/1.1/DTD/svg11.dtd">
<svg width="100%" height="100%" viewBox="0 0 350 350" version="1.1" xmlns="http://www.w3.org/2000/svg" xmlns:xlink="http://www.w3.org/1999/xlink" xml:space="preserve" style="fill-rule:evenodd;clip-rule:evenodd;stroke-linecap:round;stroke-linejoin:round;stroke-miterlimit:1.41421;">
    <g transform="matrix(1,0,0,1,-15.7268,-144.418)">
        <path d="M244.839,460L206.186,360" style="fill:none;stroke-width:4.17px;stroke:black;"/>
    </g>
    <g transform="matrix(1,0,0,1,-15.7268,-144.418)">
        <path d="M244.839,460L300,380" style="fill:none;stroke-width:4.17px;stroke:black;"/>
    </g>
    <g transform="matrix(1,0,0,1,-15.7268,-144.418)">
        <path d="M300,380L206.186,360" style="fill:none;stroke-width:4.17px;stroke:black;"/>
    </g>
    <g transform="matrix(1,0,0,1,-15.7268,-144.418)">
        <path d="M300,380L340,310" style="fill:none;stroke-width:4.17px;stroke:black;"/>
    </g>
    <g transform="matrix(1,0,0,1,-15.7268,-144.418)">
        <path d="M340,310L340,430" style="fill:none;stroke-width:4.17px;stroke:black;"/>
    </g>
    <g transform="matrix(1,0,0,1,-15.7268,-144.418)">
        <path d="M340,430L300,380" style="fill:none;stroke-width:4.17px;stroke:black;"/>
    </g>
    <g transform="matrix(1,0,0,1,-15.7268,-144.418)">
        <path d="M140,284.465L220,215.556" style="fill:none;stroke-width:4.17px;stroke:black;"/>
    </g>
    <g transform="matrix(1,0,0,1,-15.7268,-144.418)">
        <path d="M220,215.556L270,300" style="fill:none;stroke-width:4.17px;stroke:black;"/>
    </g>
    <g transform="matrix(1,0,0,1,-15.7268,-144.418)">
        <path d="M270,300L300,235.556" style="fill:none;stroke-width:4.17px;stroke:black;"/>
    </g>
    <g transform="matrix(1,0,0,1,-15.7268,-144.418)">
        <path d="M220,215.556L300,235.556" style="fill:none;stroke-width:4.17px;stroke:black;"/>
    </g>
    <g transform="matrix(1,0,0,1,-15.7268,-144.418)">
        <path d="M340,210L300,235.556" style="fill:none;stroke-width:4.17px;stroke:black;"/>
    </g>
    <g transform="matrix(1,0,0,1,-15.7268,-144.418)">
        <path d="M206.186,360L140,284.465" style="fill:none;stroke-width:4.17px;stroke:black;"/>
    </g>
    <g transform="matrix(1,0,0,1,-15.7268,-144.418)">
        <path d="M70,380L145.762,430" style="fill:none;stroke-width:4.17px;stroke:black;"/>
    </g>
    <g transform="matrix(1,0,0,1,-15.7268,-144.418)">
        <path d="M145.762,430L206.186,360" style="fill:none;stroke-width:4.17px;stroke:black;"/>
    </g>
    <g transform="matrix(1,0,0,1,-15.7268,-144.418)">
        <path d="M50,450L70,380" style="fill:none;stroke-width:4.17px;stroke:black;"/>
    </g>
    <g transform="matrix(1,0,0,1,-15.7268,-144.418)">
        <path d="M70,380L140,284.465" style="fill:none;stroke-width:4.17px;stroke:black;"/>
    </g>
    <g transform="matrix(1,0,0,1,-15.7268,-144.418)">
        <path d="M130,200L50,193.641" style="fill:none;stroke-width:4.17px;stroke:black;"/>
    </g>
    <g transform="matrix(1,0,0,1,-15.7268,-144.418)">
        <path d="M50,260.115L50,193.641" style="fill:none;stroke-width:4.17px;stroke:black;"/>
    </g>
    <g transform="matrix(1,0,0,1,-15.7268,-144.418)">
        <path d="M140,284.465L50,260.115" style="fill:none;stroke-width:4.17px;stroke:black;"/>
    </g>
    <g transform="matrix(1,0,0,1,-15.7268,-144.418)">
        <path d="M130,200L140,284.465" style="fill:none;stroke-width:4.17px;stroke:black;"/>
    </g>
    <g transform="matrix(1,0,0,1,-15.7268,-144.418)">
        <g transform="matrix(1,2.22045e-16,-2.22045e-16,1,50,450)">
            <circle cx="0" cy="0" r="10" style="fill:black;stroke-width:4.17px;stroke:white;"/>
        </g>
        <g transform="matrix(1,2.22045e-16,-2.22045e-16,1,300,235.556)">
            <circle cx="0" cy="0" r="10" style="fill:black;stroke-width:4.17px;stroke:white;"/>
        </g>
        <g transform="matrix(1,2.22045e-16,-2.22045e-16,1,340,210)">
            <circle cx="0" cy="0" r="10" style="fill:black;stroke-width:4.17px;stroke:white;"/>
        </g>
        <g transform="matrix(1,2.22045e-16,-2.22045e-16,1,70,380)">
            <circle cx="0" cy="0" r="10" style="fill:black;stroke-width:4.17px;stroke:white;"/>
        </g>
        <g transform="matrix(1,2.22045e-16,-2.22045e-16,1,206.186,360)">
            <circle cx="0" cy="0" r="10" style="fill:black;stroke-width:4.17px;stroke:white;"/>
        </g>
        <g transform="matrix(1,2.22045e-16,-2.22045e-16,1,145.762,430)">
            <circle cx="0" cy="0" r="10" style="fill:black;stroke-width:4.17px;stroke:white;"/>
        </g>
        <g transform="matrix(1,2.22045e-16,-2.22045e-16,1,130,200)">
            <circle cx="0" cy="0" r="10" style="fill:black;stroke-width:4.17px;stroke:white;"/>
        </g>
        <g transform="matrix(1,2.22045e-16,-2.22045e-16,1,140,284.465)">
            <circle cx="0" cy="0" r="10" style="fill:black;stroke-width:4.17px;stroke:white;"/>
        </g>
        <g transform="matrix(1,2.22045e-16,-2.22045e-16,1,50,193.641)">
            <circle cx="0" cy="0" r="10" style="fill:black;stroke-width:4.17px;stroke:white;"/>
        </g>
        <g transform="matrix(1,2.22045e-16,-2.22045e-16,1,270,300)">
            <circle cx="0" cy="0" r="10" style="fill:black;stroke-width:4.17px;stroke:white;"/>
        </g>
        <g transform="matrix(1,2.22045e-16,-2.22045e-16,1,300,380)">
            <circle cx="0" cy="0" r="10" style="fill:black;stroke-width:4.17px;stroke:white;"/>
        </g>
        <g transform="matrix(1,2.22045e-16,-2.22045e-16,1,340,310)">
            <circle cx="0" cy="0" r="10" style="fill:black;stroke-width:4.17px;stroke:white;"/>
        </g>
        <g transform="matrix(1,2.22045e-16,-2.22045e-16,1,340,430)">
            <circle cx="0" cy="0" r="10" style="fill:black;stroke-width:4.17px;stroke:white;"/>
        </g>
        <g transform="matrix(1,2.22045e-16,-2.22045e-16,1,244.839,460)">
            <circle cx="0" cy="0" r="10" style="fill:black;stroke-width:4.17px;stroke:white;"/>
        </g>
        <g transform="matrix(1,2.22045e-16,-2.22045e-16,1,220,215.556)">
            <circle cx="0" cy="0" r="10" style="fill:black;stroke-width:4.17px;stroke:white;"/>
        </g>
        <g transform="matrix(1,2.22045e-16,-2.22045e-16,1,50,260)">
            <circle cx="0" cy="0" r="10" style="fill:black;stroke-width:4.17px;stroke:white;"/>
        </g>
    </g>
    <g transform="matrix(1,0,0,1,-17.512,-141.867)">
        <text x="43.958px" y="178.095px" style="font-family:'ArialMT';font-size:25px;fill:rgb(26,50,230);">a</text>
    </g>
    <g transform="matrix(1,0,0,1,-14.9436,-142.445)">
        <text x="122.639px" y="186.354px" style="font-family:'ArialMT';font-size:25px;fill:rgb(26,50,230);">b</text>
    </g>
    <g transform="matrix(1,0,0,1,-15.7436,-141.39)">
        <text x="213.434px" y="200.86px" style="font-family:'ArialMT';font-size:25px;fill:rgb(26,50,230);">c</text>
    </g>
    <g transform="matrix(1,0,0,1,-13.8544,-138.887)">
        <text x="291.511px" y="216.641px" style="font-family:'ArialMT';font-size:25px;fill:rgb(26,50,230);">d</text>
    </g>
    <g transform="matrix(1,0,0,1,-15.7268,-137.613)">
        <text x="332.611px" y="189.84px" style="font-family:'ArialMT';font-size:25px;fill:rgb(26,50,230);">e</text>
    </g>
    <g transform="matrix(1,0,0,1,-15.7268,-144.418)">
        <text x="27.774px" y="280.088px" style="font-family:'ArialMT';font-size:25px;fill:rgb(26,50,230);">f</text>
    </g>
    <g transform="matrix(1,0,0,1,-23.1765,-141.714)">
        <text x="163.413px" y="287.64px" style="font-family:'ArialMT';font-size:25px;fill:rgb(26,50,230);">g</text>
    </g>
    <g transform="matrix(1,0,0,1,-9.06493,-156.427)">
        <text x="273.74px" y="317.72px" style="font-family:'ArialMT';font-size:25px;fill:rgb(26,50,230);">h</text>
    </g>
    <g transform="matrix(1,0,0,1,-33.9976,-144.418)">
        <text x="355.39px" y="299.661px" style="font-family:'ArialMT';font-size:25px;fill:rgb(26,50,230);">i</text>
    </g>
    <g transform="matrix(1,0,0,1,-10.6069,-141.305)">
        <text x="54.507px" y="364.159px" style="font-family:'ArialMT';font-size:25px;fill:rgb(26,50,230);">j</text>
    </g>
    <g transform="matrix(1,0,0,1,-12.1901,-136.577)">
        <text x="207.292px" y="344.587px" style="font-family:'ArialMT';font-size:25px;fill:rgb(26,50,230);">k</text>
    </g>
    <g transform="matrix(1,0,0,1,-13.9416,-137.902)">
        <text x="279.583px" y="363.174px" style="font-family:'ArialMT';font-size:25px;fill:rgb(26,50,230);">m</text>
    </g>
    <g transform="matrix(1,0,0,1,-28.3606,-164.601)">
        <text x="37.763px" y="474.243px" style="font-family:'ArialMT';font-size:25px;fill:rgb(26,50,230);">n</text>
    </g>
    <g transform="matrix(1,0,0,1,-13.3282,-137.547)">
        <text x="146.407px" y="447.357px" style="font-family:'ArialMT';font-size:25px;fill:rgb(26,50,230);">o</text>
    </g>
    <g transform="matrix(1,0,0,1,-21.506,-147.209)">
        <text x="261.175px" y="473.374px" style="font-family:'ArialMT';font-size:25px;fill:rgb(26,50,230);">p</text>
    </g>
    <g transform="matrix(1,0,0,1,-19.0447,-136.574)">
        <text x="356.413px" y="437.406px" style="font-family:'ArialMT';font-size:25px;fill:rgb(26,50,230);">l</text>
    </g>
</svg>
