<?xml version="1.0" standalone="no"?>
<!DOCTYPE svg PUBLIC "-//W3C//DTD SVG 1.1//EN" "http://www.w3.org/Graphics/SVG/1.1/DTD/svg11.dtd">
<svg width="100%" height="100%" viewBox="0 0 140 140" version="1.1" xmlns="http://www.w3.org/2000/svg" xmlns:xlink="http://www.w3.org/1999/xlink" xml:space="preserve" style="fill-rule:evenodd;clip-rule:evenodd;stroke-linecap:round;stroke-linejoin:round;stroke-miterlimit:1.41421;">
    <g transform="matrix(1,0,0,1,-280,-280)">
        <path d="M300,400L300,300" style="fill:none;stroke-width:4.17px;stroke:black;"/>
        <path d="M400,300L300,300" style="fill:none;stroke-width:4.17px;stroke:black;"/>
        <path d="M300,400L400,400" style="fill:none;stroke-width:4.17px;stroke:black;"/>
        <path d="M400,400L400,300" style="fill:none;stroke-width:4.17px;stroke:black;"/>
        <path d="M300,400L350,350L400,300" style="fill:none;stroke-width:4.17px;stroke:black;"/>
        <path d="M400,400L350,350" style="fill:none;stroke-width:4.17px;stroke:black;"/>
        <path d="M300,300L350,350" style="fill:none;stroke-width:4.17px;stroke:black;"/>
    </g>
    <g transform="matrix(1,0,0,1,-280,-280)">
        <g transform="matrix(1,2.22045e-16,-2.22045e-16,1,300,300)">
            <circle cx="0" cy="0" r="10" style="fill:black;stroke-width:4.17px;stroke:white;"/>
        </g>
        <g transform="matrix(1,2.22045e-16,-2.22045e-16,1,300,400)">
            <circle cx="0" cy="0" r="10" style="fill:black;stroke-width:4.17px;stroke:white;"/>
        </g>
        <g transform="matrix(1,2.22045e-16,-2.22045e-16,1,400,300)">
            <circle cx="0" cy="0" r="10" style="fill:black;stroke-width:4.17px;stroke:white;"/>
        </g>
        <g transform="matrix(1,2.22045e-16,-2.22045e-16,1,400,400)">
            <circle cx="0" cy="0" r="10" style="fill:black;stroke-width:4.17px;stroke:white;"/>
        </g>
        <g transform="matrix(1,2.22045e-16,-2.22045e-16,1,350,350)">
            <circle cx="0" cy="0" r="10" style="fill:black;stroke-width:4.17px;stroke:white;"/>
        </g>
    </g>
</svg>
