<?xml version="1.0" standalone="no"?>
<!DOCTYPE svg PUBLIC "-//W3C//DTD SVG 1.1//EN" "http://www.w3.org/Graphics/SVG/1.1/DTD/svg11.dtd">
<svg width="100%" height="100%" viewBox="0 0 162 154" version="1.1" xmlns="http://www.w3.org/2000/svg" xmlns:xlink="http://www.w3.org/1999/xlink" xml:space="preserve" style="fill-rule:evenodd;clip-rule:evenodd;stroke-linecap:round;stroke-linejoin:round;stroke-miterlimit:1.41421;">
    <g transform="matrix(1,0,0,1,-11.7723,-24.7411)">
        <path d="M92.688,38.014L92.316,59.823" style="fill:black;stroke-width:1px;stroke:rgb(0,136,255);"/>
        <path d="M87.658,70.898L60.047,96.532" style="fill:none;stroke-width:1px;stroke:rgb(0,136,255);"/>
        <path d="M97.733,69.639L126.081,95.192" style="fill:none;stroke-width:1px;stroke:rgb(0,136,255);"/>
        <g transform="matrix(1,0,0,-1,0,207.741)">
            <path d="M126.307,107.419C120.664,113.482 79.556,123.385 58.046,107.573" style="fill:none;stroke-width:1px;stroke:rgb(0,136,255);"/>
        </g>
        <g transform="matrix(-0.254878,0.590111,0.677307,0.292539,106.294,26.2408)">
            <path d="M89.795,52.645L92.387,59.404L94.095,53.927L94.556,52.448" style="fill:none;stroke-width:1.45px;stroke:rgb(0,136,255);"/>
        </g>
        <path d="M62.053,101.542L85.644,101.542" style="fill:none;stroke-width:1px;stroke:rgb(0,136,255);"/>
        <path d="M92.316,171.706L166.706,101.542" style="fill:none;stroke-width:1px;stroke:rgb(0,136,255);"/>
        <g transform="matrix(1,0,0,0.927916,0,7.79797)">
            <path d="M88.752,108.178L76.317,131.682" style="fill:none;stroke-width:1.04px;stroke:rgb(0,136,255);"/>
        </g>
        <path d="M106.802,141.914L92.316,165.069" style="fill:none;stroke-width:1px;stroke:rgb(0,136,255);"/>
        <path d="M85.051,170.065L22.875,106.677" style="fill:none;stroke-width:1px;stroke:rgb(0,136,255);"/>
        <path d="M23.935,96.496L86.275,34.688" style="fill:none;stroke-width:1px;stroke:rgb(0,136,255);"/>
        <path d="M98.492,33.919L162.552,95.429" style="fill:none;stroke-width:1px;stroke:rgb(0,136,255);"/>
        <g transform="matrix(1,0,0,1,-18.4679,0)">
            <path d="M121.534,132.958L100.118,132.958" style="fill:none;stroke-width:1px;stroke:rgb(0,136,255);"/>
        </g>
        <g transform="matrix(1,0,0,1,-18.4679,6.09338)">
            <path d="M121.534,132.958L100.118,132.958" style="fill:none;stroke-width:1px;stroke:rgb(0,136,255);"/>
        </g>
        <g transform="matrix(0.642802,0,0,0.737783,33.0398,15.8945)">
            <path d="M89.795,52.645L92.387,59.404L94.556,52.448" style="fill:none;stroke-width:1.45px;stroke:rgb(0,136,255);"/>
        </g>
        <g transform="matrix(0.560054,0.31549,-0.364809,0.647605,46.2462,62.3696)">
            <path d="M89.795,52.645L92.387,59.404L94.556,52.448" style="fill:none;stroke-width:1.44px;stroke:rgb(0,136,255);"/>
        </g>
        <g transform="matrix(-1.0337e-16,-0.642802,0.737783,-1.18645e-16,41.8162,160.793)">
            <path d="M89.795,52.645L92.387,59.404L94.556,52.448" style="fill:none;stroke-width:1.45px;stroke:rgb(0,136,255);"/>
        </g>
        <g transform="matrix(-1.0337e-16,-0.642802,0.737783,-1.18645e-16,59.239,192.209)">
            <path d="M89.795,52.645L92.387,59.404L94.095,53.927L94.556,52.448" style="fill:none;stroke-width:1.45px;stroke:rgb(0,136,255);"/>
        </g>
        <g transform="matrix(-1.17961e-16,0.642802,-0.737783,-2.77556e-17,125.485,79.8128)">
            <path d="M89.795,52.645L92.387,59.404L94.556,52.448" style="fill:none;stroke-width:1.45px;stroke:rgb(0,136,255);"/>
        </g>
        <g transform="matrix(-0.527032,-0.368009,0.422387,-0.604907,130.401,211.848)">
            <path d="M89.795,52.645L92.387,59.404L94.556,52.448" style="fill:none;stroke-width:1.45px;stroke:rgb(0,136,255);"/>
        </g>
        <g transform="matrix(0.418786,0.48766,-0.559717,0.480667,18.0729,23.042)">
            <path d="M89.795,52.645L92.387,59.404L94.556,52.448" style="fill:none;stroke-width:1.45px;stroke:rgb(0,136,255);"/>
        </g>
        <g transform="matrix(0.45453,-0.45453,0.521691,0.521691,12.0673,180.687)">
            <path d="M89.795,52.645L92.387,59.404L94.556,52.448" style="fill:none;stroke-width:1.45px;stroke:rgb(0,136,255);"/>
        </g>
        <g transform="matrix(-0.455113,0.453945,-0.521021,-0.522361,171.254,22.9096)">
            <path d="M89.795,52.645L92.387,59.404L94.556,52.448" style="fill:none;stroke-width:1.45px;stroke:rgb(0,136,255);"/>
        </g>
        <g transform="matrix(-0.45453,-0.45453,0.521691,-0.521691,172.251,179.654)">
            <path d="M89.795,52.645L92.387,59.404L94.556,52.448" style="fill:none;stroke-width:1.45px;stroke:rgb(0,136,255);"/>
        </g>
        <g transform="matrix(-0.455113,0.453945,-0.521021,-0.522361,170.548,58.7193)">
            <path d="M89.795,52.645L92.387,59.404L94.556,52.448" style="fill:none;stroke-width:1.45px;stroke:rgb(0,136,255);"/>
        </g>
        <g transform="matrix(0.418786,0.48766,-0.559717,0.480667,54.5362,22.831)">
            <path d="M89.795,52.645L92.387,59.404L94.556,52.448" style="fill:none;stroke-width:1.45px;stroke:rgb(0,136,255);"/>
        </g>
        <g transform="matrix(1,0,0,1,54.5734,-9.0028)">
            <ellipse cx="37.743" cy="40.38" rx="6.672" ry="6.636" style="fill:rgb(235,235,235);"/>
        </g>
        <g transform="matrix(1,0,0,1,54.5734,26.0793)">
            <ellipse cx="37.743" cy="40.38" rx="6.672" ry="6.636" style="fill:rgb(235,235,235);"/>
        </g>
        <g transform="matrix(1,0,0,1,17.6377,61.1614)">
            <ellipse cx="37.743" cy="40.38" rx="6.672" ry="6.636" style="fill:rgb(235,235,235);"/>
        </g>
        <g transform="matrix(1,0,0,1,91.5092,61.1614)">
            <ellipse cx="37.743" cy="40.38" rx="6.672" ry="6.636" style="fill:rgb(235,235,235);"/>
        </g>
        <g transform="matrix(1,0,0,1,54.5734,61.1614)">
            <ellipse cx="37.743" cy="40.38" rx="6.672" ry="6.636" style="fill:rgb(235,235,235);"/>
        </g>
        <g transform="matrix(1,0,0,1,-19.298,61.1614)">
            <ellipse cx="37.743" cy="40.38" rx="6.672" ry="6.636" style="fill:rgb(235,235,235);"/>
        </g>
        <g transform="matrix(1,0,0,1,128.445,61.1614)">
            <ellipse cx="37.743" cy="40.38" rx="6.672" ry="6.636" style="fill:rgb(235,235,235);"/>
        </g>
        <g transform="matrix(1,0,0,1,54.5734,131.326)">
            <ellipse cx="37.743" cy="40.38" rx="6.672" ry="6.636" style="fill:rgb(235,235,235);"/>
        </g>
        <g transform="matrix(1,0,0,1,36.1056,96.2435)">
            <ellipse cx="37.743" cy="40.38" rx="6.672" ry="6.636" style="fill:rgb(235,235,235);"/>
        </g>
        <g transform="matrix(1,0,0,1,73.0413,96.2435)">
            <ellipse cx="37.743" cy="40.38" rx="6.672" ry="6.636" style="fill:rgb(235,235,235);"/>
        </g>
        <g transform="matrix(1,0,0,1,-3.22681,2.58737)">
            <text x="92.616px" y="31.817px" style="font-family:'ArialMT';font-size:12px;fill:black;">a</text>
        </g>
        <g transform="matrix(1,0,0,1,-3.09507,2.31237)">
            <text x="92.485px" y="67.174px" style="font-family:'ArialMT';font-size:12px;fill:black;">b</text>
        </g>
        <g transform="matrix(1,0,0,1,-4.15132,1.63418)">
            <text x="93.468px" y="102.793px" style="font-family:'ArialMT';font-size:12px;fill:black;">c</text>
        </g>
        <g transform="matrix(1,0,0,1,-21.5336,2.98859)">
            <text x="92.045px" y="136.662px" style="font-family:'ArialMT';font-size:12px;fill:black;">d</text>
        </g>
        <g transform="matrix(1,0,0,1,-3.65174,3.65975)">
            <text x="92.403px" y="171.073px" style="font-family:'ArialMT';font-size:12px;fill:black;">e</text>
        </g>
        <g transform="matrix(1,0,0,1,-1.49359,4.15)">
            <text x="127.409px" y="100.193px" style="font-family:'ArialMT';font-size:12px;fill:black;">h</text>
        </g>
        <g transform="matrix(1,0,0,1,-1.6874,2.90061)">
            <text x="166.542px" y="101.668px" style="font-family:'ArialMT';font-size:12px;fill:black;">i</text>
        </g>
        <g transform="matrix(1,0,0,1,-57.091,37.9827)">
            <text x="166.542px" y="101.668px" style="font-family:'ArialMT';font-size:12px;fill:black;">j</text>
        </g>
        <g transform="matrix(1,0,0,1,-0.70029,2.90061)">
            <text x="17.478px" y="101.668px" style="font-family:'ArialMT';font-size:12px;fill:black;">f</text>
        </g>
        <g transform="matrix(1,0,0,1,-5.23218,1.58041)">
            <text x="57.276px" y="102.988px" style="font-family:'ArialMT';font-size:12px;fill:black;">g</text>
        </g>
    </g>
</svg>
